<svg xmlns="http://www.w3.org/2000/svg" viewBox="0 0 512 512">
  <defs>
    <linearGradient id="g" x1="0" y1="0" x2="1" y2="1">
      <stop offset="0" stop-color="#0ea5e9"/>
      <stop offset="1" stop-color="#2563eb"/>
    </linearGradient>
  </defs>
  <rect x="36" y="36" width="440" height="440" rx="110" fill="url(#g)"/>
  <path d="M176 92h160a46 46 0 0 1 46 46v236a46 46 0 0 1-46 46H176a46 46 0 0 1-46-46V138a46 46 0 0 1 46-46Z" fill="none" stroke="#fff" stroke-width="24"/>
  <path d="M142 171h228" stroke="#fff" stroke-width="18" stroke-linecap="round"/>
  <circle cx="180" cy="132" r="11" fill="#fff"/>
  <path d="M224 132h78" stroke="#fff" stroke-width="18" stroke-linecap="round"/>
  <circle cx="256" cy="280" r="76" fill="none" stroke="#fff" stroke-width="24"/>
  <circle cx="256" cy="280" r="42" fill="none" stroke="#fff" stroke-opacity=".86" stroke-width="14"/>
  <path d="M218 286c20 15 56 15 76 0" fill="none" stroke="#fff" stroke-width="14" stroke-linecap="round"/>
</svg>
